<svg xmlns="http://www.w3.org/2000/svg">
  <symbol id="logo-htmlacademy" viewBox="0 0 26.943 34.09">
    <path d="M13.62.02L13.47 0 0 1.41v24.66l13.47 8.02L26.9 26.1l.04-.03V1.41L13.62.01zm11.4 12.1L13.49 5.34v-.1l-.08.05-.1-.06v.11L1.94 12.12V3.15l11.54-1.21 11.55 1.2v8.99zM13.4 6.8l11.52 6.71-4.48 2.64-7.09-4.22-.01 1.41 5.9 3.52-.86.5-5.03-2.99-.01 1.42 3.82 2.27-.78.52-3.03-1.78-.01 1.41 1.85 1.1-1.8 1.07-11.36-6.75L13.41 6.8zM1.93 15.13l11.4 6.79.02 1.04-7.94-4.73-.02 1.42 7.98 4.8.02 1.07-7.97-4.74-.01 1.42 8.02 4.82.04.02 8.14-4.87V17l3.4-2.03v10.02l-11.54 6.87-11.54-6.87v-9.85z"/>
  </symbol>
  <symbol id="logo-footer" viewBox="0 0 127.8 23.4">
    <path fill="#111" d="M1.6 21.5C.6 20.2 0 18.3 0 15.9V7.6c0-2.5.5-4.4 1.5-5.7C2.6.6 4.3 0 6.8 0c2.4 0 4.1.6 5.1 1.7s1.5 2.8 1.5 4.9v2H8.5V6.3c0-.9-.1-1.6-.3-2s-.6-.8-1.4-.8c-.7 0-1.2.2-1.4.7s-.3 1.3-.3 2.2v10.7c0 .9.1 1.6.4 2.1.2.5.7.7 1.4.7s1.1-.2 1.3-.7c.2-.5.3-1.2.3-2.1v-2.4h4.9v2c0 2.1-.5 3.8-1.5 5-1 1.2-2.7 1.8-5.1 1.8-2.4-.1-4.2-.7-5.2-2zM19.3.3H25l4.2 22.8h-4.6l-.8-4.8h-3.3l-.8 4.8H15L19.3.3zm4.1 15l-1.2-8.9-1.2 8.9h2.4zM32.7 4.1h-3.4V.3h11.9V4h-3.4v19.1h-5.1v-19zM50.3.3h8.8v2.4h-5.7v7.5H58v2.3h-4.6v8.4h5.7v2.3h-8.9V.3zM61.7.3h2.2l6.5 15.1V.3H73v22.8h-2L64.4 7.5v15.6h-2.7V.3zM76 .3h8.8v2.4h-5.7v7.5h4.6v2.3h-4.6v8.4h5.7v2.3H76V.3zM87.4.3H92c2.3 0 4 .5 5.1 1.4 1.1.9 1.6 2.5 1.6 4.6 0 2.9-.9 4.7-2.8 5.3L99.1 23H96l-3-10.7h-2.5V23h-3.2V.3zm4.4 9.8c1.4 0 2.3-.3 2.9-.8.6-.5.9-1.5.9-3 0-.9-.1-1.7-.3-2.2-.2-.5-.6-.9-1.1-1.2-.5-.3-1.3-.4-2.2-.4h-1.4V10h1.2zM102.7 21.4c-.9-1.3-1.4-3.2-1.4-5.8V8c0-1.8.2-3.2.5-4.3.4-1.1 1-2 1.9-2.6s2.1-.9 3.7-.9c2.1 0 3.6.5 4.5 1.6s1.4 2.7 1.4 5v.8h-3v-.7c0-1.1-.1-1.9-.2-2.5-.1-.6-.4-1-.8-1.3-.4-.3-1-.5-1.9-.5-.9 0-1.5.2-2 .6s-.7.9-.8 1.6-.2 1.6-.2 2.7V16c0 1.7.2 3 .6 3.8.4.8 1.2 1.1 2.4 1.1s2-.4 2.4-1.2c.4-.8.7-2.1.7-4v-1.6h-2.9v-2.3h5.8v11.3h-2l-.3-2.6c-.7 1.9-2.1 2.9-4.1 2.9-1.9 0-3.4-.7-4.3-2zM119.8 15.1L114.9.4h3l3.5 11 3.4-11h3l-4.9 14.7v8h-3v-8z"/>
  </symbol>
</svg>
